<svg width="554" height="626" viewBox="0 0 554 626" fill="none" xmlns="http://www.w3.org/2000/svg">
<g clip-path="url(#clip0_46_47)">
<path fill-rule="evenodd" clip-rule="evenodd" d="M443.599 80.9007C469.02 103.967 524.56 361.654 442.762 462.485C411.147 501.526 314.979 503.225 198.214 467.127C178.961 461.172 165.762 456.913 146.699 454.348C145.488 454.133 152.978 460.832 163.542 469.228C188.556 489.105 198.693 502.892 197.435 515.473C196.76 521.54 194.307 520.961 186.133 512.845C162.729 489.513 135.36 472.623 93.991 456.32C77.7479 449.891 62.3257 429.413 103.416 420.825C138.174 413.56 158.467 405.889 188.339 388.262C207.727 376.882 220.868 385.206 211.018 402.546C207.611 408.56 187.293 421.071 164.768 431.08L153.258 436.137C200.74 450.694 203.69 451.793 242.194 460.586C333.733 481.374 398.635 475.138 425.572 442.844C493.61 361.105 459.093 185.411 438.26 81.3927C437.667 78.5539 440.708 78.2303 443.599 80.9007Z" fill="black"/>
</g>
<defs>
<clipPath id="clip0_46_47">
<rect width="452" height="544" fill="white" transform="matrix(-0.97885 0.204578 0.204578 0.97885 442.575 0.518066)"/>
</clipPath>
</defs>
</svg>
